<svg xmlns="http://www.w3.org/2000/svg" version="1.1" xmlns:xlink="http://www.w3.org/1999/xlink" width="512" height="512" x="0" y="0" viewBox="0 0 64 64" style="enable-background:new 0 0 512 512" xml:space="preserve" class=""><g><path d="M23 50a3 3 0 0 0 3 3h10a3 3 0 0 0 3-3V39H23zM26.686 31l.25-4H5.064l.25 4zM14.751 40.43a3.561 3.561 0 0 1-.527-2.636A4.518 4.518 0 0 0 13 41a4.072 4.072 0 0 0 2.025 3.765l.634-1.9a1.526 1.526 0 0 0-.18-1.341zM49 11.828a1 1 0 0 1 .293-.707l2.535-2.535L50.4 7.158 47 10.426V15h2zM50 17h-4a9.012 9.012 0 0 0-8.944 8h21.888A9.012 9.012 0 0 0 50 17zM28 23H4v2h24zM24.382 19H7.618l-1 2h18.764zM21.1 51H6.564l.375 6h11.208a2.834 2.834 0 0 1-.147-.862V54a1 1 0 0 1 1-1h3.026a4.954 4.954 0 0 1-.926-2zM47 45a3 3 0 0 0-3-3h-3v6h3a3 3 0 0 0 3-3zM36 27v2h24v-2zM16.409 37.055l-.222 1.11a1.548 1.548 0 0 0 .228 1.156l.729 1.091a3.518 3.518 0 0 1 .412 3.083l-.4 1.194A4.187 4.187 0 0 0 19 41c0-2.019-1.132-3.676-2.591-3.945z" fill="#ff0007" opacity="1" data-original="#000000" class=""></path><path d="M38.5 37H40a1 1 0 0 1 1 1v2h3a5 5 0 0 1 0 10h-3a4.948 4.948 0 0 1-1.026 3H45a1 1 0 0 1 1 1v2.138a2.834 2.834 0 0 1-.147.862h10.216l1.857-26H38.074zM21 41c0 3.309-2.243 6-5 6s-5-2.691-5-6 2.243-6 5-6 5 2.691 5 6v-3a1 1 0 0 1 1-1h5.721l.222-4H4.057l.889 16H21z" fill="#ff0007" opacity="1" data-original="#000000" class=""></path><path d="M26 55h-6v1.138a.863.863 0 0 0 .862.862h22.276a.863.863 0 0 0 .862-.862V55z" fill="#ff0007" opacity="1" data-original="#000000" class=""></path></g></svg>