<svg xmlns="http://www.w3.org/2000/svg" version="1.1" xmlns:xlink="http://www.w3.org/1999/xlink" width="512" height="512" x="0" y="0" viewBox="0 0 24 24" style="enable-background:new 0 0 512 512" xml:space="preserve" class=""><g><g data-name="Layer 2"><circle cx="22" cy="22" r="1" fill="#ff0007" opacity="1" data-original="#000000" class=""></circle><circle cx="18" cy="22" r="1" fill="#ff0007" opacity="1" data-original="#000000" class=""></circle><path d="M20 19H4a3 3 0 0 1-3-3V4a3 3 0 0 1 3-3h16a3 3 0 0 1 3 3v12a3 3 0 0 1-3 3zM4 3a1 1 0 0 0-1 1v12a1 1 0 0 0 1 1h16a1 1 0 0 0 1-1V4a1 1 0 0 0-1-1z" fill="#ff0007" opacity="1" data-original="#000000" class=""></path><path d="M20 2H4a2 2 0 0 0-2 2v12a2 2 0 0 0 2 2h16a2 2 0 0 0 2-2V4a2 2 0 0 0-2-2zm-4.93 9-3.63 2a1.1 1.1 0 0 1-1.64-.95V7.91a1.1 1.1 0 0 1 1.64-1L15.07 9a1.1 1.1 0 0 1 0 2z" fill="#ff0007" opacity="1" data-original="#000000" class=""></path><rect width="14" height="2" x="1" y="21" rx="1" fill="#ff0007" opacity="1" data-original="#000000" class=""></rect></g></g></svg>