<svg xmlns="http://www.w3.org/2000/svg" version="1.1" xmlns:xlink="http://www.w3.org/1999/xlink" width="512" height="512" x="0" y="0" viewBox="0 0 24 24" style="enable-background:new 0 0 512 512" xml:space="preserve" class=""><g><path d="M7.354 16.507a2.75 2.75 0 0 0 2.703 2.243h7.341a1.75 1.75 0 0 0 1.75-1.75v-2a2.752 2.752 0 0 0-2.75-2.75h-4.166a.25.25 0 0 1-.246-.205l-1.552-8.537A2.75 2.75 0 0 0 7.728 1.25H6.602a1.75 1.75 0 0 0-1.72 2.073l2.472 13.184Z" fill="#ff0007" opacity="1" data-original="#000000" class=""></path><path d="m11.262 17.603-1.544 2.469a1.752 1.752 0 0 0 1.484 2.678h6.696a.75.75 0 0 0 0-1.5h-6.696a.25.25 0 0 1-.212-.383l1.544-2.47a.75.75 0 0 0-1.272-.794ZM10.898 9.75h6a.75.75 0 0 0 0-1.5h-6a.75.75 0 0 0 0 1.5Z" fill="#ff0007" opacity="1" data-original="#000000" class=""></path></g></svg>